<?xml version="1.0" standalone="no"?>
<!DOCTYPE svg PUBLIC "-//W3C//DTD SVG 20010904//EN"
 "http://www.w3.org/TR/2001/REC-SVG-20010904/DTD/svg10.dtd">
<svg version="1.0" xmlns="http://www.w3.org/2000/svg"
 width="512.000000pt" height="512.000000pt" viewBox="0 0 512.000000 512.000000"
 preserveAspectRatio="xMidYMid meet">

<g transform="translate(0.000000,512.000000) scale(0.100000,-0.100000)"
fill="#000000" stroke="none">
<path d="M1 4568 c1 -392 4 -522 10 -448 16 195 72 354 148 423 223 202 962
52 1585 -321 232 -139 479 -350 601 -512 27 -36 49 -66 50 -67 0 -1 23 9 50
22 68 35 172 35 240 0 27 -13 50 -23 50 -22 22 38 123 156 199 232 185 185
436 355 729 495 558 267 1121 342 1306 174 65 -58 119 -187 140 -329 6 -39 9
107 10 423 l1 482 -2560 0 -2560 0 1 -552z"/>
<path d="M2 1948 l-2 -1948 2560 0 2560 0 -1 1868 c-1 1649 -3 1855 -15 1762
-75 -557 -291 -1076 -571 -1370 -74 -78 -171 -161 -221 -189 -14 -8 -9 -24 35
-117 144 -307 224 -655 224 -969 0 -353 -77 -478 -311 -504 -460 -51 -1250
290 -1558 673 l-58 72 -29 -18 c-38 -23 -62 -23 -102 1 -17 11 -33 16 -35 11
-9 -26 -123 -151 -193 -212 -284 -248 -728 -452 -1120 -513 -154 -24 -350 -18
-423 14 -130 58 -182 195 -182 482 0 320 84 674 235 992 20 43 36 79 34 81 -2
1 -33 23 -69 48 -95 67 -237 221 -324 350 -233 351 -405 899 -429 1373 -2 33
-4 -816 -5 -1887z"/>
</g>
</svg>
